<svg xmlns="http://www.w3.org/2000/svg" version="1.1" xmlns:xlink="http://www.w3.org/1999/xlink" xmlns:svgjs="http://svgjs.dev/svgjs" width="100%" height="100%" viewBox="0 0 1000 600"><rect width="1000" height="600" x="0" y="0" fill="#050505"/><g><rect width="333.3333333333333" height="333.3333333333333" rx="13.333333333333334" ry="13.333333333333334" y="226.0195417494108" fill="white" transform="matrix(0.6133545235500705,0,0,0.6133545235500705,0,59.144148497118906)" x="203.7974090576172"/><path d="M318.9015689699423 467.68619336119343L302.0323560566328 467.68619336119343L302.0323560566328 317.68619380270934L438.89578157970953 317.68619380270934L438.89578157970953 334.55540671601875L318.9015689699423 334.55540671601875L318.9015689699423 384.15031397744656L415.34254090829637 384.15031397744656L415.34254090829637 401.22207318645616L318.9015689699423 401.22207318645616L318.9015689699423 467.68619336119343Z " fill="#050505" transform="matrix(0.6133545235500705,0,0,0.6133545235500705,0,59.144148497118906)"/><path d="M632.621726059284 433.29859476694094L620.4640728368486 433.29859476694094L620.4640728368486 325.19349304291836L719.1016367169849 325.19349304291836L719.1016367169849 337.3511462653538L632.621726059284 337.3511462653538L632.621726059284 373.09422966716215L702.1268001422638 373.09422966716215L702.1268001422638 385.39785814269715L632.621726059284 385.39785814269715L632.621726059284 433.29859476694094ZM740.4140236695217 433.29859476694094L728.1103951939867 433.29859476694094L728.1103951939867 433.29859476694094L728.1103951939867 364.3774216963594Q728.1103951939867 359.4351166985598 730.5919744966794 355.30610239660064Q733.0735537993721 351.1770880946414 737.2025681013313 348.6955087919488Q741.3315824032904 346.2139294892561 746.2738874010902 346.2139294892561L746.2738874010902 346.2139294892561L795.2173044046165 346.2139294892561L795.2173044046165 358.5175579647911L746.2738874010902 358.5175579647911Q743.8757225287401 358.5175579647911 742.1448730991309 360.24840739440026Q740.4140236695217 361.9792568240094 740.4140236695217 364.3774216963594L740.4140236695217 364.3774216963594L740.4140236695217 433.29859476694094ZM822.2435798356221 433.29859476694094L822.2435798356221 433.29859476694094Q817.3012748378226 433.29859476694094 813.1722605358633 430.8170154642483Q809.0432462339041 428.33543616155566 806.5616669312114 424.20642185959645Q804.0800876285189 420.07740755763723 804.0800876285189 415.1351025598376L804.0800876285189 415.1351025598376L804.0800876285189 364.3774216963594Q804.0800876285189 359.4351166985598 806.5616669312114 355.30610239660064Q809.0432462339041 351.1770880946414 813.1722605358633 348.6955087919488Q817.3012748378226 346.2139294892561 822.2435798356221 346.2139294892561L822.2435798356221 346.2139294892561L874.5027204452673 346.2139294892561Q879.6118543037521 346.2139294892561 883.7408686057114 348.6955087919488Q887.8698829076706 351.1770880946414 890.3514622103633 355.30610239660064Q892.8121879054702 359.4351166985598 892.8121879054702 364.3774216963594L892.8121879054702 364.3774216963594L892.8121879054702 415.1351025598376Q892.8121879054702 420.07740755763723 890.3514622103633 424.20642185959645Q887.8698829076706 428.33543616155566 883.7408686057114 430.8170154642483Q879.6118543037521 433.29859476694094 874.5027204452673 433.29859476694094L874.5027204452673 433.29859476694094L822.2435798356221 433.29859476694094ZM822.2435798356221 420.99496629140594L822.2435798356221 420.99496629140594L874.5027204452673 420.99496629140594Q876.9008853176174 420.99496629140594 878.6317347472266 419.26411686179677Q880.3625841768358 417.53326743218764 880.3625841768358 415.1351025598376L880.3625841768358 415.1351025598376L880.3625841768358 364.3774216963594Q880.3625841768358 361.9792568240094 878.6317347472266 360.24840739440026Q876.9008853176174 358.5175579647911 874.5027204452673 358.5175579647911L874.5027204452673 358.5175579647911L822.2435798356221 358.5175579647911Q819.8454149632721 358.5175579647911 818.1145655336629 360.24840739440026Q816.4045697116394 361.9792568240094 816.4045697116394 364.3774216963594L816.4045697116394 364.3774216963594L816.4045697116394 415.1351025598376Q816.4045697116394 417.53326743218764 818.1145655336629 419.26411686179677Q819.8454149632721 420.99496629140594 822.2435798356221 420.99496629140594ZM918.5038324509941 433.29859476694094L906.1793503678734 433.29859476694094L906.1793503678734 433.29859476694094L906.1793503678734 346.2139294892561L976.7479584377215 346.2139294892561Q981.7111170431067 346.2139294892561 985.8401313450659 348.6955087919488Q989.9691456470252 351.1770880946414 992.4507249497178 355.30610239660064Q994.9114506448248 359.4351166985598 994.9114506448248 364.3774216963594L994.9114506448248 364.3774216963594L994.9114506448248 433.29859476694094L982.6078221692899 433.29859476694094L982.6078221692899 364.3774216963594Q982.6078221692899 361.9792568240094 980.8769727396807 360.24840739440026Q979.1461233100715 358.5175579647911 976.7479584377215 358.5175579647911L976.7479584377215 358.5175579647911L924.509671435662 358.5175579647911Q922.0906529557262 358.5175579647911 920.2972427033602 360.24840739440026Q918.5038324509941 361.9792568240094 918.5038324509941 364.3774216963594L918.5038324509941 364.3774216963594L918.5038324509941 433.29859476694094ZM1028.694294933582 433.29859476694094L1028.694294933582 433.29859476694094Q1023.6060146826826 433.29859476694094 1019.4770003807234 430.8170154642483Q1015.3479860787643 428.33543616155566 1012.9289675988285 424.20642185959645Q1010.5308027264784 420.07740755763723 1010.5308027264784 415.1351025598376L1010.5308027264784 415.1351025598376L1010.5308027264784 317.6861943120835L1022.8552848095992 317.6861943120835L1022.8552848095992 346.2139294892561L1060.5377537168733 346.2139294892561L1060.5377537168733 358.5175579647911L1022.8552848095992 358.5175579647911L1022.8552848095992 415.1351025598376Q1022.8552848095992 417.53326743218764 1024.5652806316227 419.26411686179677Q1026.296130061232 420.99496629140594 1028.694294933582 420.99496629140594L1028.694294933582 420.99496629140594L1060.5377537168733 420.99496629140594L1060.5377537168733 433.29859476694094L1028.694294933582 433.29859476694094ZM1140.719874883707 467.6861936756819L1086.354519907911 467.6861936756819L1086.354519907911 467.6861936756819L1086.354519907911 455.2157363394617L1140.719874883707 455.2157363394617Q1143.118039756057 455.2157363394617 1144.8488891856662 453.48488690985255Q1146.5588850076897 451.774891087829 1146.5588850076897 449.3558726078934L1146.5588850076897 449.3558726078934L1146.5588850076897 433.29859476694094L1088.460734274062 433.29859476694094Q1083.4975756686767 433.29859476694094 1079.3685613667176 430.8170154642483Q1075.2395470647582 428.33543616155566 1072.7788213696513 424.20642185959645Q1070.2972420669585 420.07740755763723 1070.2972420669585 415.1351025598376L1070.2972420669585 415.1351025598376L1070.2972420669585 364.3774216963594Q1070.2972420669585 359.4351166985598 1072.7788213696513 355.30610239660064Q1075.2395470647582 351.1770880946414 1079.3685613667176 348.6955087919488Q1083.4975756686767 346.2139294892561 1088.460734274062 346.2139294892561L1088.460734274062 346.2139294892561L1140.719874883707 346.2139294892561Q1145.8081551346063 346.2139294892561 1149.9371694365655 348.6955087919488Q1154.0661837385246 351.1770880946414 1156.4852022184605 355.30610239660064Q1158.8833670908105 359.4351166985598 1158.8833670908105 364.3774216963594L1158.8833670908105 364.3774216963594L1158.8833670908105 449.3558726078934Q1158.8833670908105 454.4650064663782 1156.4852022184605 458.59402076833743Q1154.0661837385246 462.72303507029665 1149.9371694365655 465.2046143729892Q1145.8081551346063 467.6861936756819 1140.719874883707 467.6861936756819L1140.719874883707 467.6861936756819ZM1088.460734274062 420.99496629140594L1088.460734274062 420.99496629140594L1140.719874883707 420.99496629140594Q1143.118039756057 420.99496629140594 1144.8488891856662 419.26411686179677Q1146.5588850076897 417.53326743218764 1146.5588850076897 415.1351025598376L1146.5588850076897 415.1351025598376L1146.5588850076897 364.3774216963594Q1146.5588850076897 361.9792568240094 1144.8488891856662 360.24840739440026Q1143.118039756057 358.5175579647911 1140.719874883707 358.5175579647911L1140.719874883707 358.5175579647911L1088.460734274062 358.5175579647911Q1086.062569401712 358.5175579647911 1084.3317199721027 360.24840739440026Q1082.6008705424936 361.9792568240094 1082.6008705424936 364.3774216963594L1082.6008705424936 364.3774216963594L1082.6008705424936 415.1351025598376Q1082.6008705424936 417.53326743218764 1084.3317199721027 419.26411686179677Q1086.062569401712 420.99496629140594 1088.460734274062 420.99496629140594ZM1260.9826298301648 433.29859476694094L1190.414021760317 433.29859476694094Q1185.4508631549315 433.29859476694094 1181.3218488529724 430.8170154642483Q1177.1928345510132 428.33543616155566 1174.7112552483204 424.20642185959645Q1172.2505295532137 420.07740755763723 1172.2505295532137 415.1351025598376L1172.2505295532137 415.1351025598376L1172.2505295532137 383.604447890331L1248.5121724939447 383.604447890331L1248.5121724939447 364.3774216963594Q1248.5121724939447 361.9792568240094 1246.7813230643358 360.24840739440026Q1245.071327242312 358.5175579647911 1242.6523087623766 358.5175579647911L1242.6523087623766 358.5175579647911L1172.2505295532137 358.5175579647911L1172.2505295532137 346.2139294892561L1242.6523087623766 346.2139294892561Q1247.7614426208613 346.2139294892561 1251.8904569228205 348.6955087919488Q1256.0194712247796 351.1770880946414 1258.5010505274724 355.30610239660064Q1260.9826298301648 359.4351166985598 1260.9826298301648 364.3774216963594L1260.9826298301648 364.3774216963594L1260.9826298301648 433.29859476694094ZM1190.414021760317 420.99496629140594L1190.414021760317 420.99496629140594L1248.5121724939447 420.99496629140594L1248.5121724939447 395.908076365866L1184.5541580287486 395.908076365866L1184.5541580287486 415.1351025598376Q1184.5541580287486 417.53326743218764 1186.2850074583578 419.26411686179677Q1188.015856887967 420.99496629140594 1190.414021760317 420.99496629140594ZM1294.765474118922 433.29859476694094L1294.765474118922 433.29859476694094Q1289.6563402604372 433.29859476694094 1285.527325958478 430.8170154642483Q1281.398311656519 428.33543616155566 1279.0001467841687 424.20642185959645Q1276.6019819118187 420.07740755763723 1276.6019819118187 415.1351025598376L1276.6019819118187 415.1351025598376L1276.6019819118187 317.6861943120835L1288.9056103873538 317.6861943120835L1288.9056103873538 346.2139294892561L1326.588079294628 346.2139294892561L1326.588079294628 358.5175579647911L1288.9056103873538 358.5175579647911L1288.9056103873538 415.1351025598376Q1288.9056103873538 417.53326743218764 1290.6364598169628 419.26411686179677Q1292.3673092465722 420.99496629140594 1294.765474118922 420.99496629140594L1294.765474118922 420.99496629140594L1326.588079294628 420.99496629140594L1326.588079294628 433.29859476694094L1294.765474118922 433.29859476694094ZM1356.0125195979833 433.29859476694094L1356.0125195979833 433.29859476694094Q1351.0702146001838 433.29859476694094 1346.9412002982247 430.8170154642483Q1342.8121859962655 428.33543616155566 1340.3306066935727 424.20642185959645Q1337.8490273908799 420.07740755763723 1337.8490273908799 415.1351025598376L1337.8490273908799 415.1351025598376L1337.8490273908799 364.3774216963594Q1337.8490273908799 359.4351166985598 1340.3306066935727 355.30610239660064Q1342.8121859962655 351.1770880946414 1346.9412002982247 348.6955087919488Q1351.0702146001838 346.2139294892561 1356.0125195979833 346.2139294892561L1356.0125195979833 346.2139294892561L1408.2716602076287 346.2139294892561Q1413.3807940661134 346.2139294892561 1417.5098083680725 348.6955087919488Q1421.6388226700317 351.1770880946414 1424.1204019727245 355.30610239660064Q1426.5811276678317 359.4351166985598 1426.5811276678317 364.3774216963594L1426.5811276678317 364.3774216963594L1426.5811276678317 395.908076365866L1350.1735094740009 395.908076365866L1350.1735094740009 415.1351025598376Q1350.1735094740009 417.53326743218764 1351.8835052960242 419.26411686179677Q1353.6143547256333 420.99496629140594 1356.0125195979833 420.99496629140594L1356.0125195979833 420.99496629140594L1426.5811276678317 420.99496629140594L1426.5811276678317 433.29859476694094L1356.0125195979833 433.29859476694094ZM1350.1735094740009 364.3774216963594L1350.1735094740009 383.604447890331L1414.1315239391968 383.604447890331L1414.1315239391968 364.3774216963594Q1414.1315239391968 361.9792568240094 1412.4006745095878 360.24840739440026Q1410.6698250799789 358.5175579647911 1408.2716602076287 358.5175579647911L1408.2716602076287 358.5175579647911L1356.0125195979833 358.5175579647911Q1353.6143547256333 358.5175579647911 1351.8835052960242 360.24840739440026Q1350.1735094740009 361.9792568240094 1350.1735094740009 364.3774216963594L1350.1735094740009 364.3774216963594Z " fill="white" transform="matrix(0.6133545235500705,0,0,0.6133545235500705,0,59.144148497118906)"/></g></svg>